<?xml version="1.0" encoding="UTF-8" standalone="no"?>
<svg width="1189mm" height="841mm" viewBox="0 0 1189 841" version="1.1" id="svg5" xmlns="http://www.w3.org/2000/svg" xmlns:svg="http://www.w3.org/2000/svg">
<g id="checkers">
<rect width="25" height="25" x="7" y="8"/>
<rect width="25" height="25" x="57" y="8"/>
<rect width="25" height="25" x="107" y="8"/>
<rect width="25" height="25" x="157" y="8"/>
<rect width="25" height="25" x="207" y="8"/>
<rect width="25" height="25" x="257" y="8"/>
<rect width="25" height="25" x="307" y="8"/>
<rect width="25" height="25" x="357" y="8"/>
<rect width="25" height="25" x="407" y="8"/>
<rect width="25" height="25" x="457" y="8"/>
<rect width="25" height="25" x="507" y="8"/>
<rect width="25" height="25" x="557" y="8"/>
<rect width="25" height="25" x="607" y="8"/>
<rect width="25" height="25" x="657" y="8"/>
<rect width="25" height="25" x="707" y="8"/>
<rect width="25" height="25" x="757" y="8"/>
<rect width="25" height="25" x="807" y="8"/>
<rect width="25" height="25" x="857" y="8"/>
<rect width="25" height="25" x="907" y="8"/>
<rect width="25" height="25" x="957" y="8"/>
<rect width="25" height="25" x="1007" y="8"/>
<rect width="25" height="25" x="1057" y="8"/>
<rect width="25" height="25" x="1107" y="8"/>
<rect width="25" height="25" x="1157" y="8"/>
<rect width="25" height="25" x="32" y="33"/>
<rect width="25" height="25" x="82" y="33"/>
<rect width="25" height="25" x="132" y="33"/>
<rect width="25" height="25" x="182" y="33"/>
<rect width="25" height="25" x="232" y="33"/>
<rect width="25" height="25" x="282" y="33"/>
<rect width="25" height="25" x="332" y="33"/>
<rect width="25" height="25" x="382" y="33"/>
<rect width="25" height="25" x="432" y="33"/>
<rect width="25" height="25" x="482" y="33"/>
<rect width="25" height="25" x="532" y="33"/>
<rect width="25" height="25" x="582" y="33"/>
<rect width="25" height="25" x="632" y="33"/>
<rect width="25" height="25" x="682" y="33"/>
<rect width="25" height="25" x="732" y="33"/>
<rect width="25" height="25" x="782" y="33"/>
<rect width="25" height="25" x="832" y="33"/>
<rect width="25" height="25" x="882" y="33"/>
<rect width="25" height="25" x="932" y="33"/>
<rect width="25" height="25" x="982" y="33"/>
<rect width="25" height="25" x="1032" y="33"/>
<rect width="25" height="25" x="1082" y="33"/>
<rect width="25" height="25" x="1132" y="33"/>
<rect width="25" height="25" x="7" y="58"/>
<rect width="25" height="25" x="57" y="58"/>
<rect width="25" height="25" x="107" y="58"/>
<rect width="25" height="25" x="157" y="58"/>
<rect width="25" height="25" x="207" y="58"/>
<rect width="25" height="25" x="257" y="58"/>
<rect width="25" height="25" x="307" y="58"/>
<rect width="25" height="25" x="357" y="58"/>
<rect width="25" height="25" x="407" y="58"/>
<rect width="25" height="25" x="457" y="58"/>
<rect width="25" height="25" x="507" y="58"/>
<rect width="25" height="25" x="557" y="58"/>
<rect width="25" height="25" x="607" y="58"/>
<rect width="25" height="25" x="657" y="58"/>
<rect width="25" height="25" x="707" y="58"/>
<rect width="25" height="25" x="757" y="58"/>
<rect width="25" height="25" x="807" y="58"/>
<rect width="25" height="25" x="857" y="58"/>
<rect width="25" height="25" x="907" y="58"/>
<rect width="25" height="25" x="957" y="58"/>
<rect width="25" height="25" x="1007" y="58"/>
<rect width="25" height="25" x="1057" y="58"/>
<rect width="25" height="25" x="1107" y="58"/>
<rect width="25" height="25" x="1157" y="58"/>
<rect width="25" height="25" x="32" y="83"/>
<rect width="25" height="25" x="82" y="83"/>
<rect width="25" height="25" x="132" y="83"/>
<rect width="25" height="25" x="182" y="83"/>
<rect width="25" height="25" x="232" y="83"/>
<rect width="25" height="25" x="282" y="83"/>
<rect width="25" height="25" x="332" y="83"/>
<rect width="25" height="25" x="382" y="83"/>
<rect width="25" height="25" x="432" y="83"/>
<rect width="25" height="25" x="482" y="83"/>
<rect width="25" height="25" x="532" y="83"/>
<rect width="25" height="25" x="582" y="83"/>
<rect width="25" height="25" x="632" y="83"/>
<rect width="25" height="25" x="682" y="83"/>
<rect width="25" height="25" x="732" y="83"/>
<rect width="25" height="25" x="782" y="83"/>
<rect width="25" height="25" x="832" y="83"/>
<rect width="25" height="25" x="882" y="83"/>
<rect width="25" height="25" x="932" y="83"/>
<rect width="25" height="25" x="982" y="83"/>
<rect width="25" height="25" x="1032" y="83"/>
<rect width="25" height="25" x="1082" y="83"/>
<rect width="25" height="25" x="1132" y="83"/>
<rect width="25" height="25" x="7" y="108"/>
<rect width="25" height="25" x="57" y="108"/>
<rect width="25" height="25" x="107" y="108"/>
<rect width="25" height="25" x="157" y="108"/>
<rect width="25" height="25" x="207" y="108"/>
<rect width="25" height="25" x="257" y="108"/>
<rect width="25" height="25" x="307" y="108"/>
<rect width="25" height="25" x="357" y="108"/>
<rect width="25" height="25" x="407" y="108"/>
<rect width="25" height="25" x="457" y="108"/>
<rect width="25" height="25" x="507" y="108"/>
<rect width="25" height="25" x="557" y="108"/>
<rect width="25" height="25" x="607" y="108"/>
<rect width="25" height="25" x="657" y="108"/>
<rect width="25" height="25" x="707" y="108"/>
<rect width="25" height="25" x="757" y="108"/>
<rect width="25" height="25" x="807" y="108"/>
<rect width="25" height="25" x="857" y="108"/>
<rect width="25" height="25" x="907" y="108"/>
<rect width="25" height="25" x="957" y="108"/>
<rect width="25" height="25" x="1007" y="108"/>
<rect width="25" height="25" x="1057" y="108"/>
<rect width="25" height="25" x="1107" y="108"/>
<rect width="25" height="25" x="1157" y="108"/>
<rect width="25" height="25" x="32" y="133"/>
<rect width="25" height="25" x="82" y="133"/>
<rect width="25" height="25" x="132" y="133"/>
<rect width="25" height="25" x="182" y="133"/>
<rect width="25" height="25" x="232" y="133"/>
<rect width="25" height="25" x="282" y="133"/>
<rect width="25" height="25" x="332" y="133"/>
<rect width="25" height="25" x="382" y="133"/>
<rect width="25" height="25" x="432" y="133"/>
<rect width="25" height="25" x="482" y="133"/>
<rect width="25" height="25" x="532" y="133"/>
<rect width="25" height="25" x="582" y="133"/>
<rect width="25" height="25" x="632" y="133"/>
<rect width="25" height="25" x="682" y="133"/>
<rect width="25" height="25" x="732" y="133"/>
<rect width="25" height="25" x="782" y="133"/>
<rect width="25" height="25" x="832" y="133"/>
<rect width="25" height="25" x="882" y="133"/>
<rect width="25" height="25" x="932" y="133"/>
<rect width="25" height="25" x="982" y="133"/>
<rect width="25" height="25" x="1032" y="133"/>
<rect width="25" height="25" x="1082" y="133"/>
<rect width="25" height="25" x="1132" y="133"/>
<rect width="25" height="25" x="7" y="158"/>
<rect width="25" height="25" x="57" y="158"/>
<rect width="25" height="25" x="107" y="158"/>
<rect width="25" height="25" x="157" y="158"/>
<rect width="25" height="25" x="207" y="158"/>
<rect width="25" height="25" x="257" y="158"/>
<rect width="25" height="25" x="307" y="158"/>
<rect width="25" height="25" x="357" y="158"/>
<rect width="25" height="25" x="407" y="158"/>
<rect width="25" height="25" x="457" y="158"/>
<rect width="25" height="25" x="507" y="158"/>
<rect width="25" height="25" x="557" y="158"/>
<rect width="25" height="25" x="607" y="158"/>
<rect width="25" height="25" x="657" y="158"/>
<rect width="25" height="25" x="707" y="158"/>
<rect width="25" height="25" x="757" y="158"/>
<rect width="25" height="25" x="807" y="158"/>
<rect width="25" height="25" x="857" y="158"/>
<rect width="25" height="25" x="907" y="158"/>
<rect width="25" height="25" x="957" y="158"/>
<rect width="25" height="25" x="1007" y="158"/>
<rect width="25" height="25" x="1057" y="158"/>
<rect width="25" height="25" x="1107" y="158"/>
<rect width="25" height="25" x="1157" y="158"/>
<rect width="25" height="25" x="32" y="183"/>
<rect width="25" height="25" x="82" y="183"/>
<rect width="25" height="25" x="132" y="183"/>
<rect width="25" height="25" x="182" y="183"/>
<rect width="25" height="25" x="232" y="183"/>
<rect width="25" height="25" x="282" y="183"/>
<rect width="25" height="25" x="332" y="183"/>
<rect width="25" height="25" x="382" y="183"/>
<rect width="25" height="25" x="432" y="183"/>
<rect width="25" height="25" x="482" y="183"/>
<rect width="25" height="25" x="532" y="183"/>
<rect width="25" height="25" x="582" y="183"/>
<rect width="25" height="25" x="632" y="183"/>
<rect width="25" height="25" x="682" y="183"/>
<rect width="25" height="25" x="732" y="183"/>
<rect width="25" height="25" x="782" y="183"/>
<rect width="25" height="25" x="832" y="183"/>
<rect width="25" height="25" x="882" y="183"/>
<rect width="25" height="25" x="932" y="183"/>
<rect width="25" height="25" x="982" y="183"/>
<rect width="25" height="25" x="1032" y="183"/>
<rect width="25" height="25" x="1082" y="183"/>
<rect width="25" height="25" x="1132" y="183"/>
<rect width="25" height="25" x="7" y="208"/>
<rect width="25" height="25" x="57" y="208"/>
<rect width="25" height="25" x="107" y="208"/>
<rect width="25" height="25" x="157" y="208"/>
<rect width="25" height="25" x="207" y="208"/>
<rect width="25" height="25" x="257" y="208"/>
<rect width="25" height="25" x="307" y="208"/>
<rect width="25" height="25" x="357" y="208"/>
<rect width="25" height="25" x="407" y="208"/>
<rect width="25" height="25" x="457" y="208"/>
<rect width="25" height="25" x="507" y="208"/>
<rect width="25" height="25" x="557" y="208"/>
<rect width="25" height="25" x="607" y="208"/>
<rect width="25" height="25" x="657" y="208"/>
<rect width="25" height="25" x="707" y="208"/>
<rect width="25" height="25" x="757" y="208"/>
<rect width="25" height="25" x="807" y="208"/>
<rect width="25" height="25" x="857" y="208"/>
<rect width="25" height="25" x="907" y="208"/>
<rect width="25" height="25" x="957" y="208"/>
<rect width="25" height="25" x="1007" y="208"/>
<rect width="25" height="25" x="1057" y="208"/>
<rect width="25" height="25" x="1107" y="208"/>
<rect width="25" height="25" x="1157" y="208"/>
<rect width="25" height="25" x="32" y="233"/>
<rect width="25" height="25" x="82" y="233"/>
<rect width="25" height="25" x="132" y="233"/>
<rect width="25" height="25" x="182" y="233"/>
<rect width="25" height="25" x="232" y="233"/>
<rect width="25" height="25" x="282" y="233"/>
<rect width="25" height="25" x="332" y="233"/>
<rect width="25" height="25" x="382" y="233"/>
<rect width="25" height="25" x="432" y="233"/>
<rect width="25" height="25" x="482" y="233"/>
<rect width="25" height="25" x="532" y="233"/>
<rect width="25" height="25" x="582" y="233"/>
<rect width="25" height="25" x="632" y="233"/>
<rect width="25" height="25" x="682" y="233"/>
<rect width="25" height="25" x="732" y="233"/>
<rect width="25" height="25" x="782" y="233"/>
<rect width="25" height="25" x="832" y="233"/>
<rect width="25" height="25" x="882" y="233"/>
<rect width="25" height="25" x="932" y="233"/>
<rect width="25" height="25" x="982" y="233"/>
<rect width="25" height="25" x="1032" y="233"/>
<rect width="25" height="25" x="1082" y="233"/>
<rect width="25" height="25" x="1132" y="233"/>
<rect width="25" height="25" x="7" y="258"/>
<rect width="25" height="25" x="57" y="258"/>
<rect width="25" height="25" x="107" y="258"/>
<rect width="25" height="25" x="157" y="258"/>
<rect width="25" height="25" x="207" y="258"/>
<rect width="25" height="25" x="257" y="258"/>
<rect width="25" height="25" x="307" y="258"/>
<rect width="25" height="25" x="357" y="258"/>
<rect width="25" height="25" x="407" y="258"/>
<rect width="25" height="25" x="457" y="258"/>
<rect width="25" height="25" x="507" y="258"/>
<rect width="25" height="25" x="557" y="258"/>
<rect width="25" height="25" x="607" y="258"/>
<rect width="25" height="25" x="657" y="258"/>
<rect width="25" height="25" x="707" y="258"/>
<rect width="25" height="25" x="757" y="258"/>
<rect width="25" height="25" x="807" y="258"/>
<rect width="25" height="25" x="857" y="258"/>
<rect width="25" height="25" x="907" y="258"/>
<rect width="25" height="25" x="957" y="258"/>
<rect width="25" height="25" x="1007" y="258"/>
<rect width="25" height="25" x="1057" y="258"/>
<rect width="25" height="25" x="1107" y="258"/>
<rect width="25" height="25" x="1157" y="258"/>
<rect width="25" height="25" x="32" y="283"/>
<rect width="25" height="25" x="82" y="283"/>
<rect width="25" height="25" x="132" y="283"/>
<rect width="25" height="25" x="182" y="283"/>
<rect width="25" height="25" x="232" y="283"/>
<rect width="25" height="25" x="282" y="283"/>
<rect width="25" height="25" x="332" y="283"/>
<rect width="25" height="25" x="382" y="283"/>
<rect width="25" height="25" x="432" y="283"/>
<rect width="25" height="25" x="482" y="283"/>
<rect width="25" height="25" x="532" y="283"/>
<rect width="25" height="25" x="582" y="283"/>
<rect width="25" height="25" x="632" y="283"/>
<rect width="25" height="25" x="682" y="283"/>
<rect width="25" height="25" x="732" y="283"/>
<rect width="25" height="25" x="782" y="283"/>
<rect width="25" height="25" x="832" y="283"/>
<rect width="25" height="25" x="882" y="283"/>
<rect width="25" height="25" x="932" y="283"/>
<rect width="25" height="25" x="982" y="283"/>
<rect width="25" height="25" x="1032" y="283"/>
<rect width="25" height="25" x="1082" y="283"/>
<rect width="25" height="25" x="1132" y="283"/>
<rect width="25" height="25" x="7" y="308"/>
<rect width="25" height="25" x="57" y="308"/>
<rect width="25" height="25" x="107" y="308"/>
<rect width="25" height="25" x="157" y="308"/>
<rect width="25" height="25" x="207" y="308"/>
<rect width="25" height="25" x="257" y="308"/>
<rect width="25" height="25" x="307" y="308"/>
<rect width="25" height="25" x="357" y="308"/>
<rect width="25" height="25" x="407" y="308"/>
<rect width="25" height="25" x="457" y="308"/>
<rect width="25" height="25" x="507" y="308"/>
<rect width="25" height="25" x="557" y="308"/>
<rect width="25" height="25" x="607" y="308"/>
<rect width="25" height="25" x="657" y="308"/>
<rect width="25" height="25" x="707" y="308"/>
<rect width="25" height="25" x="757" y="308"/>
<rect width="25" height="25" x="807" y="308"/>
<rect width="25" height="25" x="857" y="308"/>
<rect width="25" height="25" x="907" y="308"/>
<rect width="25" height="25" x="957" y="308"/>
<rect width="25" height="25" x="1007" y="308"/>
<rect width="25" height="25" x="1057" y="308"/>
<rect width="25" height="25" x="1107" y="308"/>
<rect width="25" height="25" x="1157" y="308"/>
<rect width="25" height="25" x="32" y="333"/>
<rect width="25" height="25" x="82" y="333"/>
<rect width="25" height="25" x="132" y="333"/>
<rect width="25" height="25" x="182" y="333"/>
<rect width="25" height="25" x="232" y="333"/>
<rect width="25" height="25" x="282" y="333"/>
<rect width="25" height="25" x="332" y="333"/>
<rect width="25" height="25" x="382" y="333"/>
<rect width="25" height="25" x="432" y="333"/>
<rect width="25" height="25" x="482" y="333"/>
<rect width="25" height="25" x="532" y="333"/>
<rect width="25" height="25" x="582" y="333"/>
<rect width="25" height="25" x="632" y="333"/>
<rect width="25" height="25" x="682" y="333"/>
<rect width="25" height="25" x="732" y="333"/>
<rect width="25" height="25" x="782" y="333"/>
<rect width="25" height="25" x="832" y="333"/>
<rect width="25" height="25" x="882" y="333"/>
<rect width="25" height="25" x="932" y="333"/>
<rect width="25" height="25" x="982" y="333"/>
<rect width="25" height="25" x="1032" y="333"/>
<rect width="25" height="25" x="1082" y="333"/>
<rect width="25" height="25" x="1132" y="333"/>
<rect width="25" height="25" x="7" y="358"/>
<rect width="25" height="25" x="57" y="358"/>
<rect width="25" height="25" x="107" y="358"/>
<rect width="25" height="25" x="157" y="358"/>
<rect width="25" height="25" x="207" y="358"/>
<rect width="25" height="25" x="257" y="358"/>
<rect width="25" height="25" x="307" y="358"/>
<rect width="25" height="25" x="357" y="358"/>
<rect width="25" height="25" x="407" y="358"/>
<rect width="25" height="25" x="457" y="358"/>
<rect width="25" height="25" x="507" y="358"/>
<rect width="25" height="25" x="557" y="358"/>
<rect width="25" height="25" x="607" y="358"/>
<rect width="25" height="25" x="657" y="358"/>
<rect width="25" height="25" x="707" y="358"/>
<rect width="25" height="25" x="757" y="358"/>
<rect width="25" height="25" x="807" y="358"/>
<rect width="25" height="25" x="857" y="358"/>
<rect width="25" height="25" x="907" y="358"/>
<rect width="25" height="25" x="957" y="358"/>
<rect width="25" height="25" x="1007" y="358"/>
<rect width="25" height="25" x="1057" y="358"/>
<rect width="25" height="25" x="1107" y="358"/>
<rect width="25" height="25" x="1157" y="358"/>
<rect width="25" height="25" x="32" y="383"/>
<rect width="25" height="25" x="82" y="383"/>
<rect width="25" height="25" x="132" y="383"/>
<rect width="25" height="25" x="182" y="383"/>
<rect width="25" height="25" x="232" y="383"/>
<rect width="25" height="25" x="282" y="383"/>
<rect width="25" height="25" x="332" y="383"/>
<rect width="25" height="25" x="382" y="383"/>
<rect width="25" height="25" x="432" y="383"/>
<rect width="25" height="25" x="482" y="383"/>
<rect width="25" height="25" x="532" y="383"/>
<rect width="25" height="25" x="582" y="383"/>
<rect width="25" height="25" x="632" y="383"/>
<rect width="25" height="25" x="682" y="383"/>
<rect width="25" height="25" x="732" y="383"/>
<rect width="25" height="25" x="782" y="383"/>
<rect width="25" height="25" x="832" y="383"/>
<rect width="25" height="25" x="882" y="383"/>
<rect width="25" height="25" x="932" y="383"/>
<rect width="25" height="25" x="982" y="383"/>
<rect width="25" height="25" x="1032" y="383"/>
<rect width="25" height="25" x="1082" y="383"/>
<rect width="25" height="25" x="1132" y="383"/>
<rect width="25" height="25" x="7" y="408"/>
<rect width="25" height="25" x="57" y="408"/>
<rect width="25" height="25" x="107" y="408"/>
<rect width="25" height="25" x="157" y="408"/>
<rect width="25" height="25" x="207" y="408"/>
<rect width="25" height="25" x="257" y="408"/>
<rect width="25" height="25" x="307" y="408"/>
<rect width="25" height="25" x="357" y="408"/>
<rect width="25" height="25" x="407" y="408"/>
<rect width="25" height="25" x="457" y="408"/>
<rect width="25" height="25" x="507" y="408"/>
<rect width="25" height="25" x="557" y="408"/>
<rect width="25" height="25" x="607" y="408"/>
<rect width="25" height="25" x="657" y="408"/>
<rect width="25" height="25" x="707" y="408"/>
<rect width="25" height="25" x="757" y="408"/>
<rect width="25" height="25" x="807" y="408"/>
<rect width="25" height="25" x="857" y="408"/>
<rect width="25" height="25" x="907" y="408"/>
<rect width="25" height="25" x="957" y="408"/>
<rect width="25" height="25" x="1007" y="408"/>
<rect width="25" height="25" x="1057" y="408"/>
<rect width="25" height="25" x="1107" y="408"/>
<rect width="25" height="25" x="1157" y="408"/>
<rect width="25" height="25" x="32" y="433"/>
<rect width="25" height="25" x="82" y="433"/>
<rect width="25" height="25" x="132" y="433"/>
<rect width="25" height="25" x="182" y="433"/>
<rect width="25" height="25" x="232" y="433"/>
<rect width="25" height="25" x="282" y="433"/>
<rect width="25" height="25" x="332" y="433"/>
<rect width="25" height="25" x="382" y="433"/>
<rect width="25" height="25" x="432" y="433"/>
<rect width="25" height="25" x="482" y="433"/>
<rect width="25" height="25" x="532" y="433"/>
<rect width="25" height="25" x="582" y="433"/>
<rect width="25" height="25" x="632" y="433"/>
<rect width="25" height="25" x="682" y="433"/>
<rect width="25" height="25" x="732" y="433"/>
<rect width="25" height="25" x="782" y="433"/>
<rect width="25" height="25" x="832" y="433"/>
<rect width="25" height="25" x="882" y="433"/>
<rect width="25" height="25" x="932" y="433"/>
<rect width="25" height="25" x="982" y="433"/>
<rect width="25" height="25" x="1032" y="433"/>
<rect width="25" height="25" x="1082" y="433"/>
<rect width="25" height="25" x="1132" y="433"/>
<rect width="25" height="25" x="7" y="458"/>
<rect width="25" height="25" x="57" y="458"/>
<rect width="25" height="25" x="107" y="458"/>
<rect width="25" height="25" x="157" y="458"/>
<rect width="25" height="25" x="207" y="458"/>
<rect width="25" height="25" x="257" y="458"/>
<rect width="25" height="25" x="307" y="458"/>
<rect width="25" height="25" x="357" y="458"/>
<rect width="25" height="25" x="407" y="458"/>
<rect width="25" height="25" x="457" y="458"/>
<rect width="25" height="25" x="507" y="458"/>
<rect width="25" height="25" x="557" y="458"/>
<rect width="25" height="25" x="607" y="458"/>
<rect width="25" height="25" x="657" y="458"/>
<rect width="25" height="25" x="707" y="458"/>
<rect width="25" height="25" x="757" y="458"/>
<rect width="25" height="25" x="807" y="458"/>
<rect width="25" height="25" x="857" y="458"/>
<rect width="25" height="25" x="907" y="458"/>
<rect width="25" height="25" x="957" y="458"/>
<rect width="25" height="25" x="1007" y="458"/>
<rect width="25" height="25" x="1057" y="458"/>
<rect width="25" height="25" x="1107" y="458"/>
<rect width="25" height="25" x="1157" y="458"/>
<rect width="25" height="25" x="32" y="483"/>
<rect width="25" height="25" x="82" y="483"/>
<rect width="25" height="25" x="132" y="483"/>
<rect width="25" height="25" x="182" y="483"/>
<rect width="25" height="25" x="232" y="483"/>
<rect width="25" height="25" x="282" y="483"/>
<rect width="25" height="25" x="332" y="483"/>
<rect width="25" height="25" x="382" y="483"/>
<rect width="25" height="25" x="432" y="483"/>
<rect width="25" height="25" x="482" y="483"/>
<rect width="25" height="25" x="532" y="483"/>
<rect width="25" height="25" x="582" y="483"/>
<rect width="25" height="25" x="632" y="483"/>
<rect width="25" height="25" x="682" y="483"/>
<rect width="25" height="25" x="732" y="483"/>
<rect width="25" height="25" x="782" y="483"/>
<rect width="25" height="25" x="832" y="483"/>
<rect width="25" height="25" x="882" y="483"/>
<rect width="25" height="25" x="932" y="483"/>
<rect width="25" height="25" x="982" y="483"/>
<rect width="25" height="25" x="1032" y="483"/>
<rect width="25" height="25" x="1082" y="483"/>
<rect width="25" height="25" x="1132" y="483"/>
<rect width="25" height="25" x="7" y="508"/>
<rect width="25" height="25" x="57" y="508"/>
<rect width="25" height="25" x="107" y="508"/>
<rect width="25" height="25" x="157" y="508"/>
<rect width="25" height="25" x="207" y="508"/>
<rect width="25" height="25" x="257" y="508"/>
<rect width="25" height="25" x="307" y="508"/>
<rect width="25" height="25" x="357" y="508"/>
<rect width="25" height="25" x="407" y="508"/>
<rect width="25" height="25" x="457" y="508"/>
<rect width="25" height="25" x="507" y="508"/>
<rect width="25" height="25" x="557" y="508"/>
<rect width="25" height="25" x="607" y="508"/>
<rect width="25" height="25" x="657" y="508"/>
<rect width="25" height="25" x="707" y="508"/>
<rect width="25" height="25" x="757" y="508"/>
<rect width="25" height="25" x="807" y="508"/>
<rect width="25" height="25" x="857" y="508"/>
<rect width="25" height="25" x="907" y="508"/>
<rect width="25" height="25" x="957" y="508"/>
<rect width="25" height="25" x="1007" y="508"/>
<rect width="25" height="25" x="1057" y="508"/>
<rect width="25" height="25" x="1107" y="508"/>
<rect width="25" height="25" x="1157" y="508"/>
<rect width="25" height="25" x="32" y="533"/>
<rect width="25" height="25" x="82" y="533"/>
<rect width="25" height="25" x="132" y="533"/>
<rect width="25" height="25" x="182" y="533"/>
<rect width="25" height="25" x="232" y="533"/>
<rect width="25" height="25" x="282" y="533"/>
<rect width="25" height="25" x="332" y="533"/>
<rect width="25" height="25" x="382" y="533"/>
<rect width="25" height="25" x="432" y="533"/>
<rect width="25" height="25" x="482" y="533"/>
<rect width="25" height="25" x="532" y="533"/>
<rect width="25" height="25" x="582" y="533"/>
<rect width="25" height="25" x="632" y="533"/>
<rect width="25" height="25" x="682" y="533"/>
<rect width="25" height="25" x="732" y="533"/>
<rect width="25" height="25" x="782" y="533"/>
<rect width="25" height="25" x="832" y="533"/>
<rect width="25" height="25" x="882" y="533"/>
<rect width="25" height="25" x="932" y="533"/>
<rect width="25" height="25" x="982" y="533"/>
<rect width="25" height="25" x="1032" y="533"/>
<rect width="25" height="25" x="1082" y="533"/>
<rect width="25" height="25" x="1132" y="533"/>
<rect width="25" height="25" x="7" y="558"/>
<rect width="25" height="25" x="57" y="558"/>
<rect width="25" height="25" x="107" y="558"/>
<rect width="25" height="25" x="157" y="558"/>
<rect width="25" height="25" x="207" y="558"/>
<rect width="25" height="25" x="257" y="558"/>
<rect width="25" height="25" x="307" y="558"/>
<rect width="25" height="25" x="357" y="558"/>
<rect width="25" height="25" x="407" y="558"/>
<rect width="25" height="25" x="457" y="558"/>
<rect width="25" height="25" x="507" y="558"/>
<rect width="25" height="25" x="557" y="558"/>
<rect width="25" height="25" x="607" y="558"/>
<rect width="25" height="25" x="657" y="558"/>
<rect width="25" height="25" x="707" y="558"/>
<rect width="25" height="25" x="757" y="558"/>
<rect width="25" height="25" x="807" y="558"/>
<rect width="25" height="25" x="857" y="558"/>
<rect width="25" height="25" x="907" y="558"/>
<rect width="25" height="25" x="957" y="558"/>
<rect width="25" height="25" x="1007" y="558"/>
<rect width="25" height="25" x="1057" y="558"/>
<rect width="25" height="25" x="1107" y="558"/>
<rect width="25" height="25" x="1157" y="558"/>
<rect width="25" height="25" x="32" y="583"/>
<rect width="25" height="25" x="82" y="583"/>
<rect width="25" height="25" x="132" y="583"/>
<rect width="25" height="25" x="182" y="583"/>
<rect width="25" height="25" x="232" y="583"/>
<rect width="25" height="25" x="282" y="583"/>
<rect width="25" height="25" x="332" y="583"/>
<rect width="25" height="25" x="382" y="583"/>
<rect width="25" height="25" x="432" y="583"/>
<rect width="25" height="25" x="482" y="583"/>
<rect width="25" height="25" x="532" y="583"/>
<rect width="25" height="25" x="582" y="583"/>
<rect width="25" height="25" x="632" y="583"/>
<rect width="25" height="25" x="682" y="583"/>
<rect width="25" height="25" x="732" y="583"/>
<rect width="25" height="25" x="782" y="583"/>
<rect width="25" height="25" x="832" y="583"/>
<rect width="25" height="25" x="882" y="583"/>
<rect width="25" height="25" x="932" y="583"/>
<rect width="25" height="25" x="982" y="583"/>
<rect width="25" height="25" x="1032" y="583"/>
<rect width="25" height="25" x="1082" y="583"/>
<rect width="25" height="25" x="1132" y="583"/>
<rect width="25" height="25" x="7" y="608"/>
<rect width="25" height="25" x="57" y="608"/>
<rect width="25" height="25" x="107" y="608"/>
<rect width="25" height="25" x="157" y="608"/>
<rect width="25" height="25" x="207" y="608"/>
<rect width="25" height="25" x="257" y="608"/>
<rect width="25" height="25" x="307" y="608"/>
<rect width="25" height="25" x="357" y="608"/>
<rect width="25" height="25" x="407" y="608"/>
<rect width="25" height="25" x="457" y="608"/>
<rect width="25" height="25" x="507" y="608"/>
<rect width="25" height="25" x="557" y="608"/>
<rect width="25" height="25" x="607" y="608"/>
<rect width="25" height="25" x="657" y="608"/>
<rect width="25" height="25" x="707" y="608"/>
<rect width="25" height="25" x="757" y="608"/>
<rect width="25" height="25" x="807" y="608"/>
<rect width="25" height="25" x="857" y="608"/>
<rect width="25" height="25" x="907" y="608"/>
<rect width="25" height="25" x="957" y="608"/>
<rect width="25" height="25" x="1007" y="608"/>
<rect width="25" height="25" x="1057" y="608"/>
<rect width="25" height="25" x="1107" y="608"/>
<rect width="25" height="25" x="1157" y="608"/>
<rect width="25" height="25" x="32" y="633"/>
<rect width="25" height="25" x="82" y="633"/>
<rect width="25" height="25" x="132" y="633"/>
<rect width="25" height="25" x="182" y="633"/>
<rect width="25" height="25" x="232" y="633"/>
<rect width="25" height="25" x="282" y="633"/>
<rect width="25" height="25" x="332" y="633"/>
<rect width="25" height="25" x="382" y="633"/>
<rect width="25" height="25" x="432" y="633"/>
<rect width="25" height="25" x="482" y="633"/>
<rect width="25" height="25" x="532" y="633"/>
<rect width="25" height="25" x="582" y="633"/>
<rect width="25" height="25" x="632" y="633"/>
<rect width="25" height="25" x="682" y="633"/>
<rect width="25" height="25" x="732" y="633"/>
<rect width="25" height="25" x="782" y="633"/>
<rect width="25" height="25" x="832" y="633"/>
<rect width="25" height="25" x="882" y="633"/>
<rect width="25" height="25" x="932" y="633"/>
<rect width="25" height="25" x="982" y="633"/>
<rect width="25" height="25" x="1032" y="633"/>
<rect width="25" height="25" x="1082" y="633"/>
<rect width="25" height="25" x="1132" y="633"/>
<rect width="25" height="25" x="7" y="658"/>
<rect width="25" height="25" x="57" y="658"/>
<rect width="25" height="25" x="107" y="658"/>
<rect width="25" height="25" x="157" y="658"/>
<rect width="25" height="25" x="207" y="658"/>
<rect width="25" height="25" x="257" y="658"/>
<rect width="25" height="25" x="307" y="658"/>
<rect width="25" height="25" x="357" y="658"/>
<rect width="25" height="25" x="407" y="658"/>
<rect width="25" height="25" x="457" y="658"/>
<rect width="25" height="25" x="507" y="658"/>
<rect width="25" height="25" x="557" y="658"/>
<rect width="25" height="25" x="607" y="658"/>
<rect width="25" height="25" x="657" y="658"/>
<rect width="25" height="25" x="707" y="658"/>
<rect width="25" height="25" x="757" y="658"/>
<rect width="25" height="25" x="807" y="658"/>
<rect width="25" height="25" x="857" y="658"/>
<rect width="25" height="25" x="907" y="658"/>
<rect width="25" height="25" x="957" y="658"/>
<rect width="25" height="25" x="1007" y="658"/>
<rect width="25" height="25" x="1057" y="658"/>
<rect width="25" height="25" x="1107" y="658"/>
<rect width="25" height="25" x="1157" y="658"/>
<rect width="25" height="25" x="32" y="683"/>
<rect width="25" height="25" x="82" y="683"/>
<rect width="25" height="25" x="132" y="683"/>
<rect width="25" height="25" x="182" y="683"/>
<rect width="25" height="25" x="232" y="683"/>
<rect width="25" height="25" x="282" y="683"/>
<rect width="25" height="25" x="332" y="683"/>
<rect width="25" height="25" x="382" y="683"/>
<rect width="25" height="25" x="432" y="683"/>
<rect width="25" height="25" x="482" y="683"/>
<rect width="25" height="25" x="532" y="683"/>
<rect width="25" height="25" x="582" y="683"/>
<rect width="25" height="25" x="632" y="683"/>
<rect width="25" height="25" x="682" y="683"/>
<rect width="25" height="25" x="732" y="683"/>
<rect width="25" height="25" x="782" y="683"/>
<rect width="25" height="25" x="832" y="683"/>
<rect width="25" height="25" x="882" y="683"/>
<rect width="25" height="25" x="932" y="683"/>
<rect width="25" height="25" x="982" y="683"/>
<rect width="25" height="25" x="1032" y="683"/>
<rect width="25" height="25" x="1082" y="683"/>
<rect width="25" height="25" x="1132" y="683"/>
<rect width="25" height="25" x="7" y="708"/>
<rect width="25" height="25" x="57" y="708"/>
<rect width="25" height="25" x="107" y="708"/>
<rect width="25" height="25" x="157" y="708"/>
<rect width="25" height="25" x="207" y="708"/>
<rect width="25" height="25" x="257" y="708"/>
<rect width="25" height="25" x="307" y="708"/>
<rect width="25" height="25" x="357" y="708"/>
<rect width="25" height="25" x="407" y="708"/>
<rect width="25" height="25" x="457" y="708"/>
<rect width="25" height="25" x="507" y="708"/>
<rect width="25" height="25" x="557" y="708"/>
<rect width="25" height="25" x="607" y="708"/>
<rect width="25" height="25" x="657" y="708"/>
<rect width="25" height="25" x="707" y="708"/>
<rect width="25" height="25" x="757" y="708"/>
<rect width="25" height="25" x="807" y="708"/>
<rect width="25" height="25" x="857" y="708"/>
<rect width="25" height="25" x="907" y="708"/>
<rect width="25" height="25" x="957" y="708"/>
<rect width="25" height="25" x="1007" y="708"/>
<rect width="25" height="25" x="1057" y="708"/>
<rect width="25" height="25" x="1107" y="708"/>
<rect width="25" height="25" x="1157" y="708"/>
<rect width="25" height="25" x="32" y="733"/>
<rect width="25" height="25" x="82" y="733"/>
<rect width="25" height="25" x="132" y="733"/>
<rect width="25" height="25" x="182" y="733"/>
<rect width="25" height="25" x="232" y="733"/>
<rect width="25" height="25" x="282" y="733"/>
<rect width="25" height="25" x="332" y="733"/>
<rect width="25" height="25" x="382" y="733"/>
<rect width="25" height="25" x="432" y="733"/>
<rect width="25" height="25" x="482" y="733"/>
<rect width="25" height="25" x="532" y="733"/>
<rect width="25" height="25" x="582" y="733"/>
<rect width="25" height="25" x="632" y="733"/>
<rect width="25" height="25" x="682" y="733"/>
<rect width="25" height="25" x="732" y="733"/>
<rect width="25" height="25" x="782" y="733"/>
<rect width="25" height="25" x="832" y="733"/>
<rect width="25" height="25" x="882" y="733"/>
<rect width="25" height="25" x="932" y="733"/>
<rect width="25" height="25" x="982" y="733"/>
<rect width="25" height="25" x="1032" y="733"/>
<rect width="25" height="25" x="1082" y="733"/>
<rect width="25" height="25" x="1132" y="733"/>
<rect width="25" height="25" x="7" y="758"/>
<rect width="25" height="25" x="57" y="758"/>
<rect width="25" height="25" x="107" y="758"/>
<rect width="25" height="25" x="157" y="758"/>
<rect width="25" height="25" x="207" y="758"/>
<rect width="25" height="25" x="257" y="758"/>
<rect width="25" height="25" x="307" y="758"/>
<rect width="25" height="25" x="357" y="758"/>
<rect width="25" height="25" x="407" y="758"/>
<rect width="25" height="25" x="457" y="758"/>
<rect width="25" height="25" x="507" y="758"/>
<rect width="25" height="25" x="557" y="758"/>
<rect width="25" height="25" x="607" y="758"/>
<rect width="25" height="25" x="657" y="758"/>
<rect width="25" height="25" x="707" y="758"/>
<rect width="25" height="25" x="757" y="758"/>
<rect width="25" height="25" x="807" y="758"/>
<rect width="25" height="25" x="857" y="758"/>
<rect width="25" height="25" x="907" y="758"/>
<rect width="25" height="25" x="957" y="758"/>
<rect width="25" height="25" x="1007" y="758"/>
<rect width="25" height="25" x="1057" y="758"/>
<rect width="25" height="25" x="1107" y="758"/>
<rect width="25" height="25" x="1157" y="758"/>
<rect width="25" height="25" x="32" y="783"/>
<rect width="25" height="25" x="82" y="783"/>
<rect width="25" height="25" x="132" y="783"/>
<rect width="25" height="25" x="182" y="783"/>
<rect width="25" height="25" x="232" y="783"/>
<rect width="25" height="25" x="282" y="783"/>
<rect width="25" height="25" x="332" y="783"/>
<rect width="25" height="25" x="382" y="783"/>
<rect width="25" height="25" x="432" y="783"/>
<rect width="25" height="25" x="482" y="783"/>
<rect width="25" height="25" x="532" y="783"/>
<rect width="25" height="25" x="582" y="783"/>
<rect width="25" height="25" x="632" y="783"/>
<rect width="25" height="25" x="682" y="783"/>
<rect width="25" height="25" x="732" y="783"/>
<rect width="25" height="25" x="782" y="783"/>
<rect width="25" height="25" x="832" y="783"/>
<rect width="25" height="25" x="882" y="783"/>
<rect width="25" height="25" x="932" y="783"/>
<rect width="25" height="25" x="982" y="783"/>
<rect width="25" height="25" x="1032" y="783"/>
<rect width="25" height="25" x="1082" y="783"/>
<rect width="25" height="25" x="1132" y="783"/>
<rect width="25" height="25" x="7" y="808"/>
<rect width="25" height="25" x="57" y="808"/>
<rect width="25" height="25" x="107" y="808"/>
<rect width="25" height="25" x="157" y="808"/>
<rect width="25" height="25" x="207" y="808"/>
<rect width="25" height="25" x="257" y="808"/>
<rect width="25" height="25" x="307" y="808"/>
<rect width="25" height="25" x="357" y="808"/>
<rect width="25" height="25" x="407" y="808"/>
<rect width="25" height="25" x="457" y="808"/>
<rect width="25" height="25" x="507" y="808"/>
<rect width="25" height="25" x="557" y="808"/>
<rect width="25" height="25" x="607" y="808"/>
<rect width="25" height="25" x="657" y="808"/>
<rect width="25" height="25" x="707" y="808"/>
<rect width="25" height="25" x="757" y="808"/>
<rect width="25" height="25" x="807" y="808"/>
<rect width="25" height="25" x="857" y="808"/>
<rect width="25" height="25" x="907" y="808"/>
<rect width="25" height="25" x="957" y="808"/>
<rect width="25" height="25" x="1007" y="808"/>
<rect width="25" height="25" x="1057" y="808"/>
<rect width="25" height="25" x="1107" y="808"/>
<rect width="25" height="25" x="1157" y="808"/>

</g>
</svg>